<?xml version="1.0" standalone="no"?>
<!DOCTYPE svg PUBLIC "-//W3C//DTD SVG 20010904//EN"
 "http://www.w3.org/TR/2001/REC-SVG-20010904/DTD/svg10.dtd">
<svg version="1.0" xmlns="http://www.w3.org/2000/svg"
 width="400.000000pt" height="400.000000pt" viewBox="0 0 400.000000 400.000000"
 preserveAspectRatio="xMidYMid meet">
<metadata>
Created by potrace 1.11, written by Peter Selinger 2001-2013
</metadata>
<g transform="translate(0.000000,400.000000) scale(0.100000,-0.100000)"
fill="#000000" stroke="none">
<path d="M3075 2660 c-10 -11 -41 -31 -69 -44 -91 -42 -151 -115 -201 -244
l-29 -72 -54 0 c-47 0 -55 -3 -60 -22 l-5 -21 -551 6 c-472 6 -552 9 -559 22
-12 22 -125 21 -134 -1 -6 -15 -43 -16 -429 -9 -420 7 -422 7 -443 -14 -26
-26 -30 -111 -6 -135 16 -15 69 -29 96 -26 8 1 26 2 42 1 27 -1 27 -2 27 -66
l0 -65 50 0 c45 0 50 -2 56 -26 4 -14 2 -36 -5 -50 -9 -20 -18 -24 -56 -24
l-45 0 0 -50 0 -50 115 0 115 0 0 29 c0 20 -6 30 -20 34 -18 5 -20 14 -20 80
0 52 4 78 14 86 9 7 42 11 88 9 l73 -3 3 -83 c3 -77 1 -84 -18 -89 -14 -4 -20
-14 -20 -33 0 -26 2 -27 68 -33 37 -4 88 -7 115 -7 l47 0 0 54 0 55 -47 3
c-48 3 -48 3 -51 42 -4 46 7 56 60 50 l38 -3 0 54 c0 72 15 87 86 82 31 -2 62
-11 72 -21 26 -23 117 -22 126 1 6 15 49 16 553 9 549 -6 554 -7 566 -39 1 -5
23 -10 47 -12 25 -2 50 -4 57 -4 7 -1 17 -20 24 -43 17 -67 78 -176 122 -219
22 -21 59 -48 82 -59 23 -11 50 -29 60 -40 22 -24 68 -26 86 -4 7 9 36 27 64
40 85 41 153 117 192 216 9 24 34 60 54 80 45 44 73 124 64 184 -9 54 -43 122
-71 140 -12 9 -28 32 -35 52 -32 102 -119 205 -202 242 -23 11 -50 28 -59 39
-22 26 -50 27 -73 1z m0 -140 c23 -26 43 -25 71 1 30 28 62 20 114 -27 80 -72
94 -201 31 -290 l-32 -46 20 -22 c25 -26 51 -98 51 -139 0 -79 -55 -168 -126
-202 -35 -16 -36 -16 -58 4 -28 27 -68 27 -91 1 -23 -26 -23 -26 -78 11 -105
70 -130 234 -48 322 21 23 23 30 13 45 -39 55 -52 81 -58 120 -12 80 29 172
99 219 40 28 69 29 92 3z m380 -305 c52 -51 18 -135 -54 -135 -71 0 -106 76
-60 134 28 35 80 36 114 1z"/>
</g>
</svg>
