<?xml version="1.0" standalone="no"?>
<!DOCTYPE svg PUBLIC "-//W3C//DTD SVG 20010904//EN"
 "http://www.w3.org/TR/2001/REC-SVG-20010904/DTD/svg10.dtd">
<svg version="1.0" xmlns="http://www.w3.org/2000/svg"
 width="210.000000pt" height="210.000000pt" viewBox="0 0 210.000000 210.000000"
 preserveAspectRatio="xMidYMid meet">
<metadata>
Created by potrace 1.11, written by Peter Selinger 2001-2013
</metadata>
<g transform="translate(0.000000,210.000000) scale(0.100000,-0.100000)"
fill="#000000" stroke="none">
<path d="M653 1700 c-110 -39 -188 -114 -245 -236 -29 -61 -33 -79 -33 -154 0
-75 3 -91 27 -132 50 -84 137 -116 226 -83 54 21 141 99 176 159 34 59 52 124
38 138 -17 17 -35 -3 -56 -61 -35 -99 -143 -190 -224 -191 -87 0 -137 57 -137
160 0 134 77 267 188 324 77 40 185 48 243 18 79 -40 109 -105 109 -232 -1
-100 -16 -161 -90 -360 -72 -194 -96 -287 -102 -396 -7 -120 1 -157 43 -204
43 -48 84 -58 163 -40 109 24 225 94 339 204 159 154 261 336 309 551 21 95
21 282 0 362 -28 108 -89 206 -116 188 -17 -10 -13 -34 9 -62 42 -54 63 -132
68 -260 7 -179 -22 -312 -103 -474 -119 -237 -341 -425 -538 -454 -74 -11
-104 6 -123 72 -14 47 -14 67 -4 136 15 103 48 216 111 381 63 166 82 249 83
356 0 112 -23 179 -85 242 -70 70 -167 87 -276 48z"/>
</g>
</svg>
